<svg xmlns="http://www.w3.org/2000/svg" width="251" height="59.947" viewBox="0 0 251 59.947"><path fill="#59595C" d="M39.852 39.208c-3.893 0-7.048-3.156-7.048-7.05 0-3.892 3.155-7.047 7.048-7.047 3.894 0 7.05 3.156 7.05 7.05 0 3.89-3.156 7.048-7.05 7.048m0-19.58c-6.92 0-12.53 5.61-12.53 12.53 0 6.922 5.61 12.53 12.53 12.53 6.92 0 12.53-5.608 12.53-12.53 0-6.92-5.61-12.53-12.53-12.53"/><path fill="#59595C" d="M15.153 20.724v15.29l-8.33-15.29H0v22.833h5.245V27.923l8.57 15.634h6.55V20.724zM69.94 25.626H64.8v5.657h5.14c1.784 0 3.12-1.062 3.12-2.845 0-1.818-1.37-2.812-3.12-2.812m3.224 17.93l-4.113-7.92H64.8v7.92h-5.486V20.725h10.73c5.657 0 8.57 3.017 8.57 7.27 0 3.392-2.124 5.586-4.25 6.582l4.903 8.982h-6.103zM97.814 25.626v17.93H92.33v-17.93h-7.063v-4.902h19.645v4.902zM127.266 43.557v-9.53h-9.36v9.53h-5.486V20.724h5.486v8.434h9.36v-8.434h5.52v22.833zM146.603 25.626v4.39h10.422v4.353h-10.422v9.187h-5.45V20.724h17.62v4.902zM166.556 20.724h5.45v22.834h-5.45zM180.545 43.557V20.724h17.416v4.902h-11.965V29.5h10.423v4.354h-10.423v4.834h12.308v4.87zM206.635 43.557V20.724h5.45v17.964h11.555v4.87zM239.273 38.688c3.98 0 6.07-2.537 6.07-6.548 0-4.01-2.092-6.514-6.07-6.514h-3.976v13.062h3.976zm-9.46 4.87V20.723h9.46c7.612 0 11.727 4.937 11.727 11.417s-4.114 11.418-11.727 11.418h-9.46z"/><path fill="#38BD2B" d="M39.853 0l-11.42 17.944c3.125-2.515 7.096-4.024 11.42-4.024 4.325 0 8.295 1.51 11.42 4.024L39.854 0z"/><path fill="#2B862B" d="M51.274 17.943c-3.126-2.515-7.096-4.023-11.42-4.023V0l11.42 17.943z"/><path fill="#A6A8AB" d="M141.15 50.343h1.644v9.434h-1.644zM154.392 50.342v7.14l-4.322-7.14h-2.098v9.435h1.588v-7.31l4.434 7.31h1.984v-9.435zM164.915 58.276c1.927 0 2.948-1.262 2.948-3.217s-1.02-3.217-2.948-3.217h-2.068v6.433h2.068zm-3.74 1.5v-9.434h3.74c3.017 0 4.675 2.025 4.675 4.717 0 2.677-1.658 4.717-4.675 4.717h-3.74zM182.154 56.193c0 2.352-1.643 3.754-3.967 3.754-2.337 0-3.953-1.402-3.953-3.754v-5.85h1.656v5.85c0 1.375.836 2.224 2.296 2.224 1.43 0 2.324-.85 2.324-2.224v-5.85h1.643v5.85zM194.405 51.928l-1.247.836c-.595-.793-1.502-1.19-2.507-1.19-.934 0-1.713.34-1.713 1.206 0 .892.948 1.09 2.096 1.345 1.87.396 3.542.92 3.542 2.85 0 1.74-1.417 2.973-3.726 2.973-1.872 0-3.302-.807-4.024-2.096l1.332-.78c.637 1.05 1.7 1.474 2.79 1.474 1.175 0 1.97-.51 1.97-1.39 0-1.004-1.02-1.188-2.367-1.457-1.713-.355-3.27-.923-3.27-2.78 0-1.727 1.43-2.747 3.428-2.747 1.46-.002 2.833.55 3.697 1.755"/><path fill="#A6A8AB" d="M198.497 50.342v1.445h3.102v7.99h1.658v-7.99h3.115v-1.445zM215.026 51.787h-2.535v2.99h2.564c.965 0 1.616-.582 1.616-1.487 0-.95-.68-1.503-1.644-1.503m1.742 7.99l-1.896-3.613h-2.38v3.613h-1.658v-9.435h4.235c2.082 0 3.3 1.147 3.3 2.848 0 1.345-.85 2.267-1.883 2.663l2.14 3.924h-1.86zM223.185 50.343h1.644v9.434h-1.645zM230.106 50.342v9.435h7.012v-1.444h-5.354v-2.806h4.533v-1.444h-4.533v-2.296h5.213v-1.445zM248.784 51.928l-1.247.836c-.595-.793-1.503-1.19-2.507-1.19-.935 0-1.715.34-1.715 1.206 0 .892.948 1.09 2.097 1.345 1.87.396 3.542.92 3.542 2.85 0 1.74-1.417 2.973-3.726 2.973-1.87 0-3.302-.807-4.023-2.096l1.33-.78c.638 1.05 1.7 1.474 2.792 1.474 1.176 0 1.968-.51 1.968-1.39 0-1.004-1.02-1.188-2.364-1.457-1.714-.355-3.27-.923-3.27-2.78 0-1.727 1.43-2.747 3.428-2.747 1.458-.002 2.832.55 3.696 1.755"/></svg>