<svg xmlns="http://www.w3.org/2000/svg" width="251" height="60.598" viewBox="0 0 251 60.598"><path fill="#5A5A5D" d="M40.285 39.632c-3.935 0-7.125-3.19-7.125-7.125s3.19-7.125 7.125-7.125c3.936 0 7.125 3.19 7.125 7.125s-3.19 7.125-7.125 7.125m0-19.79c-6.995 0-12.665 5.67-12.665 12.664 0 6.996 5.67 12.667 12.665 12.667 6.996 0 12.667-5.67 12.667-12.667 0-6.993-5.672-12.665-12.667-12.665"/><path fill="#5A5A5D" d="M15.318 20.948v15.457l-8.42-15.457H0V44.03h5.302V28.226l8.664 15.804h6.62V20.948z"/><path fill="#26BFF0" d="M40.285 0L28.74 18.138c3.16-2.543 7.174-4.068 11.545-4.068s8.385 1.524 11.545 4.067L40.285 0z"/><path fill="#338CCC" d="M51.83 18.137c-3.16-2.542-7.172-4.066-11.544-4.066V0L51.83 18.137z"/><path fill="#5A5A5D" d="M70.723 25.904h-5.197v5.718h5.197c1.802 0 3.154-1.074 3.154-2.877 0-1.836-1.386-2.84-3.154-2.84m3.26 18.125l-4.16-8.007h-4.297v8.007H59.98V20.948h10.847c5.72 0 8.665 3.05 8.665 7.347 0 3.43-2.148 5.648-4.297 6.653l4.955 9.08h-6.168zM97.527 25.904V44.03H91.98V25.904h-7.137v-4.956H104.7v4.956zM126.267 44.03v-9.635h-9.46v9.635h-5.546V20.948h5.546v8.525h9.46v-8.525h5.58V44.03zM145.47 25.904v4.436h10.536v4.4H145.47v9.29h-5.51V20.948h17.813v4.956zM165.64 20.948h5.51v23.08h-5.51zM179.78 44.03V20.948h17.606v4.956H185.29v3.916h10.537v4.4H185.29v4.888h12.442v4.922zM206.154 44.03V20.948h5.51v18.16h11.68v4.922zM239.147 39.108c4.02 0 6.134-2.564 6.134-6.62 0-4.054-2.113-6.583-6.133-6.583h-4.02V39.11h4.02zm-9.564 4.922V20.948h9.564c7.694 0 11.853 4.99 11.853 11.54 0 6.55-4.16 11.542-11.853 11.542h-9.564z"/><path fill="#A6A9AC" d="M139.96 50.888h1.66v9.537h-1.66zM153.344 50.888v7.218l-4.368-7.218h-2.12v9.537h1.603v-7.39l4.482 7.39h2.005v-9.537zM163.98 58.91c1.95 0 2.98-1.277 2.98-3.254 0-1.975-1.032-3.25-2.98-3.25h-2.09v6.503h2.09zm-3.78 1.515v-9.537h3.782c3.05 0 4.727 2.047 4.727 4.768 0 2.707-1.678 4.77-4.728 4.77h-3.78zM181.407 56.8c0 2.38-1.66 3.798-4.01 3.798-2.362 0-3.996-1.42-3.996-3.797V50.89h1.676V56.8c0 1.392.845 2.25 2.32 2.25 1.447 0 2.35-.858 2.35-2.25V50.89h1.66V56.8zM193.792 52.49l-1.26.846c-.603-.8-1.52-1.202-2.535-1.202-.946 0-1.733.345-1.733 1.22 0 .9.96 1.102 2.12 1.358 1.89.4 3.58.93 3.58 2.88 0 1.76-1.433 3.007-3.766 3.007-1.892 0-3.337-.817-4.068-2.122l1.346-.787c.645 1.06 1.72 1.49 2.82 1.49 1.19 0 1.992-.515 1.992-1.403 0-1.016-1.032-1.203-2.393-1.475-1.732-.358-3.307-.933-3.307-2.81 0-1.744 1.445-2.775 3.466-2.775 1.475 0 2.864.558 3.738 1.774"/><path fill="#A6A9AC" d="M197.928 50.888v1.46h3.135v8.077h1.677V52.35h3.15v-1.462zM214.636 52.35h-2.562v3.02h2.59c.976 0 1.635-.588 1.635-1.504 0-.96-.69-1.517-1.664-1.517m1.76 8.075l-1.917-3.65h-2.407v3.65h-1.675v-9.537h4.28c2.107 0 3.338 1.16 3.338 2.878 0 1.36-.86 2.292-1.905 2.693l2.163 3.965h-1.876zM222.883 50.888h1.66v9.537h-1.66zM229.88 50.888v9.537h7.088v-1.46h-5.412v-2.836h4.582v-1.462h-4.582v-2.32h5.27v-1.46zM248.76 52.49l-1.26.846c-.6-.8-1.52-1.202-2.534-1.202-.944 0-1.733.345-1.733 1.22 0 .9.96 1.102 2.12 1.358 1.89.4 3.58.93 3.58 2.88 0 1.76-1.433 3.007-3.766 3.007-1.89 0-3.337-.817-4.068-2.122l1.345-.787c.645 1.06 1.72 1.49 2.822 1.49 1.188 0 1.99-.515 1.99-1.403 0-1.016-1.03-1.203-2.392-1.475-1.733-.358-3.308-.933-3.308-2.81 0-1.744 1.446-2.775 3.465-2.775 1.476 0 2.865.558 3.738 1.774"/></svg>