<svg xmlns="http://www.w3.org/2000/svg" xmlns:xlink="http://www.w3.org/1999/xlink" width="251.222" height="60" viewBox="0 0 251.222 60"><defs><path id="a" d="M0 0h251.222v60H0z"/></defs><clipPath id="b"><use xlink:href="#a" overflow="visible"/></clipPath><path clip-path="url(#b)" fill="#59595C" d="M39.888 39.242c-3.896 0-7.054-3.158-7.054-7.055s3.158-7.055 7.054-7.055 7.055 3.158 7.055 7.055-3.16 7.055-7.055 7.055m0-19.596c-6.926 0-12.54 5.615-12.54 12.54 0 6.928 5.614 12.542 12.54 12.542s12.542-5.614 12.542-12.54c0-6.927-5.616-12.542-12.542-12.542"/><path clip-path="url(#b)" fill="#59595C" d="M15.167 20.742v15.304L6.83 20.742H0v22.853h5.25V27.948l8.58 15.647h6.553V20.742zM70.003 25.65h-5.147v5.66h5.147c1.784 0 3.123-1.063 3.123-2.847 0-1.82-1.373-2.814-3.123-2.814m3.226 17.945l-4.118-7.927h-4.255v7.927h-5.49V20.742h10.74c5.662 0 8.58 3.02 8.58 7.275 0 3.397-2.128 5.592-4.256 6.588l4.908 8.99h-6.11zM97.9 25.65v17.945h-5.49V25.65h-7.068V20.74h19.662v4.907zM127.378 43.595v-9.54h-9.368v9.54h-5.49V20.742h5.49v8.442h9.368v-8.442h5.525v22.853zM146.733 25.65v4.392h10.43V34.4h-10.43v9.195h-5.456V20.742h17.637v4.907zM166.704 20.742h5.456v22.854h-5.456zM180.705 43.595V20.742h17.432v4.907H186.16v3.876h10.432v4.358H186.16v4.838h12.32v4.873zM206.818 43.595V20.742h5.456v17.98h11.564v4.873zM239.486 38.722c3.98 0 6.074-2.54 6.074-6.554s-2.093-6.52-6.074-6.52h-3.98V38.72h3.98zm-9.47 4.873V20.742h9.47c7.62 0 11.737 4.94 11.737 11.427s-4.118 11.426-11.736 11.426h-9.47z"/><path clip-path="url(#b)" fill="#00C0F6" d="M39.888 0l-11.43 17.96c3.128-2.52 7.103-4.03 11.43-4.03s8.303 1.51 11.432 4.028L39.888 0z"/><path clip-path="url(#b)" fill="#1C8FDE" d="M51.32 17.958c-3.13-2.517-7.103-4.026-11.43-4.026L39.887 0 51.32 17.958z"/><path clip-path="url(#b)" fill="#A6A8AB" d="M141.275 50.388h1.645v9.44h-1.645zM154.528 50.387v7.146l-4.324-7.146h-2.1v9.443h1.588v-7.317l4.44 7.317h1.984v-9.443zM165.062 58.327c1.928 0 2.95-1.263 2.95-3.22s-1.022-3.218-2.95-3.218h-2.07v6.437h2.07zm-3.744 1.503v-9.442h3.744c3.02 0 4.68 2.026 4.68 4.72 0 2.68-1.66 4.723-4.68 4.723h-3.744zM182.315 56.243c0 2.354-1.645 3.758-3.97 3.758-2.34 0-3.957-1.403-3.957-3.757v-5.855h1.658v5.855c0 1.376.837 2.226 2.298 2.226 1.432 0 2.326-.85 2.326-2.227v-5.855h1.645v5.855zM194.578 51.974l-1.248.837c-.596-.793-1.503-1.19-2.51-1.19-.936 0-1.715.34-1.715 1.206 0 .893.95 1.092 2.098 1.347 1.872.396 3.545.92 3.545 2.85 0 1.745-1.418 2.98-3.73 2.98-1.872 0-3.304-.81-4.026-2.1l1.333-.78c.638 1.05 1.7 1.475 2.793 1.475 1.175 0 1.97-.51 1.97-1.39 0-1.007-1.02-1.19-2.368-1.46-1.716-.354-3.275-.923-3.275-2.78 0-1.73 1.43-2.75 3.432-2.75 1.46-.002 2.835.55 3.7 1.756"/><path clip-path="url(#b)" fill="#A6A8AB" d="M198.672 50.387v1.446h3.105v7.997h1.66v-7.997h3.12v-1.446zM215.217 51.833h-2.537v2.992h2.565c.966 0 1.618-.582 1.618-1.488 0-.952-.68-1.504-1.646-1.504m1.743 7.997l-1.898-3.616h-2.382v3.616h-1.66v-9.442h4.24c2.084 0 3.305 1.147 3.305 2.85 0 1.346-.853 2.27-1.887 2.666l2.14 3.927h-1.858zM223.383 50.388h1.645v9.44h-1.645zM230.31 50.387v9.443h7.018v-1.446h-5.36v-2.808h4.54V54.13h-4.54v-2.297h5.22v-1.446zM249.004 51.974l-1.247.837c-.596-.793-1.504-1.19-2.51-1.19-.935 0-1.716.34-1.716 1.206 0 .893.95 1.092 2.1 1.347 1.872.396 3.545.92 3.545 2.85 0 1.745-1.418 2.98-3.73 2.98-1.87 0-3.304-.81-4.026-2.1l1.33-.78c.64 1.05 1.702 1.475 2.795 1.475 1.177 0 1.97-.51 1.97-1.39 0-1.007-1.02-1.19-2.367-1.46-1.717-.354-3.275-.923-3.275-2.78 0-1.73 1.433-2.75 3.432-2.75 1.46-.002 2.835.55 3.7 1.756"/></svg>