<svg xmlns="http://www.w3.org/2000/svg" width="251" height="60.598" viewBox="0 0 251 60.598"><path fill="#5A5A5D" d="M40.284 39.633c-3.935 0-7.124-3.19-7.124-7.126 0-3.935 3.19-7.125 7.124-7.125 3.936 0 7.125 3.19 7.125 7.125 0 3.936-3.19 7.126-7.126 7.126m0-19.79c-6.994 0-12.665 5.67-12.665 12.665 0 6.995 5.67 12.667 12.664 12.667 6.996 0 12.667-5.672 12.667-12.667s-5.67-12.666-12.666-12.666"/><path fill="#5A5A5D" d="M15.318 20.948v15.458L6.896 20.948H0V44.03h5.3V28.226l8.666 15.804h6.62V20.948z"/><path fill="#FF0025" d="M40.285 0L28.74 18.14c3.16-2.545 7.173-4.07 11.545-4.07s8.385 1.525 11.545 4.068L40.285 0z"/><path fill="#CC0826" d="M51.83 18.137c-3.16-2.542-7.173-4.066-11.545-4.066V0L51.83 18.137z"/><path fill="#5A5A5D" d="M70.723 25.904h-5.198v5.718h5.198c1.802 0 3.154-1.075 3.154-2.877 0-1.836-1.386-2.84-3.154-2.84m3.26 18.125l-4.16-8.007h-4.297v8.007H59.98V20.948h10.847c5.72 0 8.664 3.05 8.664 7.348 0 3.43-2.147 5.648-4.296 6.654l4.955 9.08H73.98zM97.526 25.904V44.03H91.98V25.904h-7.138v-4.956H104.7v4.956zM126.267 44.03v-9.635h-9.462v9.635h-5.544V20.948h5.545v8.526h9.462v-8.526h5.58V44.03zM145.47 25.904v4.436h10.535v4.402H145.47v9.288h-5.51V20.948h17.813v4.956zM165.64 20.948h5.51V44.03h-5.51zM179.78 44.03V20.948h17.607v4.956H185.29v3.916h10.537v4.402H185.29v4.886h12.443v4.922zM206.155 44.03V20.948h5.51v18.16h11.678v4.922zM239.148 39.108c4.02 0 6.134-2.564 6.134-6.62s-2.113-6.583-6.134-6.583h-4.02V39.11h4.02zm-9.565 4.922V20.948h9.565c7.694 0 11.852 4.99 11.852 11.54 0 6.55-4.157 11.542-11.852 11.542h-9.565z"/><path fill="#A5A8AB" d="M139.958 50.89h1.66v9.536h-1.66zM153.344 50.888v7.218l-4.37-7.218h-2.12v9.538h1.605v-7.39l4.482 7.39h2.005v-9.538zM163.982 58.91c1.947 0 2.98-1.277 2.98-3.253s-1.033-3.25-2.98-3.25h-2.09v6.502h2.09zm-3.78 1.516v-9.538h3.78c3.05 0 4.726 2.047 4.726 4.77 0 2.705-1.677 4.77-4.726 4.77h-3.78zM181.408 56.8c0 2.38-1.662 3.798-4.01 3.798-2.363 0-3.997-1.418-3.997-3.797V50.89h1.677V56.8c0 1.393.844 2.25 2.32 2.25 1.447 0 2.35-.857 2.35-2.25V50.89h1.66V56.8zM193.792 52.492l-1.26.845c-.603-.802-1.52-1.202-2.536-1.202-.946 0-1.732.345-1.732 1.218 0 .9.96 1.104 2.12 1.36 1.89.4 3.58.93 3.58 2.88 0 1.76-1.433 3.006-3.767 3.006-1.89 0-3.337-.817-4.067-2.12l1.346-.788c.644 1.06 1.72 1.49 2.82 1.49 1.19 0 1.992-.517 1.992-1.405 0-1.016-1.032-1.202-2.393-1.475-1.732-.357-3.307-.932-3.307-2.808 0-1.745 1.446-2.777 3.466-2.777 1.475 0 2.864.558 3.738 1.775"/><path fill="#A5A8AB" d="M197.928 50.888v1.46h3.135v8.078h1.677V52.35h3.15v-1.462zM214.635 52.35h-2.562v3.02h2.59c.977 0 1.635-.588 1.635-1.503 0-.96-.688-1.517-1.663-1.517m1.763 8.076l-1.92-3.652h-2.404v3.652h-1.676v-9.538h4.28c2.106 0 3.338 1.16 3.338 2.878 0 1.36-.86 2.292-1.904 2.693l2.162 3.966h-1.876zM222.883 50.89h1.66v9.536h-1.66zM229.88 50.888v9.538h7.088v-1.462h-5.412V56.13h4.582v-1.462h-4.582v-2.32h5.27v-1.46zM248.76 52.492l-1.26.845c-.602-.802-1.52-1.202-2.534-1.202-.945 0-1.733.345-1.733 1.218 0 .9.96 1.104 2.12 1.36 1.89.4 3.58.93 3.58 2.88 0 1.76-1.434 3.006-3.767 3.006-1.89 0-3.338-.817-4.067-2.12l1.345-.788c.645 1.06 1.72 1.49 2.822 1.49 1.188 0 1.99-.517 1.99-1.405 0-1.016-1.03-1.202-2.393-1.475-1.733-.357-3.308-.932-3.308-2.808 0-1.745 1.447-2.777 3.466-2.777 1.476 0 2.865.558 3.738 1.775"/></svg>