<?xml version="1.0" encoding="utf-8"?>
<!-- Generator: Adobe Illustrator 15.1.0, SVG Export Plug-In . SVG Version: 6.00 Build 0)  -->
<!DOCTYPE svg PUBLIC "-//W3C//DTD SVG 1.1//EN" "http://www.w3.org/Graphics/SVG/1.1/DTD/svg11.dtd">
<svg version="1.1" id="Layer_1" xmlns="http://www.w3.org/2000/svg" xmlns:xlink="http://www.w3.org/1999/xlink" x="0px" y="0px"
	 width="251px" height="60.598px" viewBox="0 0 251 60.598" enable-background="new 0 0 251 60.598" xml:space="preserve">
<g>
	<path fill="#5A5A5D" d="M40.284,39.633c-3.935,0-7.124-3.19-7.124-7.126c0-3.935,3.189-7.125,7.124-7.125
		c3.936,0,7.125,3.189,7.125,7.125C47.409,36.443,44.22,39.633,40.284,39.633 M40.284,19.842c-6.994,0-12.665,5.671-12.665,12.666
		c0,6.995,5.67,12.667,12.665,12.667c6.996,0,12.667-5.672,12.667-12.667C52.951,25.513,47.28,19.842,40.284,19.842"/>
	<polygon fill="#5A5A5D" points="15.318,20.948 15.318,36.406 6.896,20.948 0,20.948 0,44.03 5.301,44.03 5.301,28.226 
		13.966,44.03 20.586,44.03 20.586,20.948 	"/>
	<path fill="#FF0025" d="M40.285,0.001L28.739,18.139c3.161-2.544,7.174-4.068,11.546-4.068s8.385,1.524,11.545,4.067L40.285,0.001z
		"/>
	<path fill="#CC0826" d="M51.83,18.137c-3.16-2.542-7.173-4.066-11.545-4.066l0-14.071L51.83,18.137z"/>
	<path fill="#5A5A5D" d="M70.723,25.904h-5.198v5.718h5.198c1.802,0,3.154-1.075,3.154-2.877
		C73.877,26.909,72.491,25.904,70.723,25.904 M73.982,44.03l-4.159-8.007h-4.297v8.007H59.98V20.948h10.847
		c5.719,0,8.664,3.049,8.664,7.348c0,3.429-2.148,5.648-4.297,6.654l4.955,9.08H73.982z"/>
	<polygon fill="#5A5A5D" points="97.526,25.904 97.526,44.03 91.981,44.03 91.981,25.904 84.842,25.904 84.842,20.948 104.7,20.948 
		104.7,25.904 	"/>
	<polygon fill="#5A5A5D" points="126.267,44.03 126.267,34.395 116.805,34.395 116.805,44.03 111.261,44.03 111.261,20.948 
		116.805,20.948 116.805,29.474 126.267,29.474 126.267,20.948 131.846,20.948 131.846,44.03 	"/>
	<polygon fill="#5A5A5D" points="145.47,25.904 145.47,30.34 156.005,30.34 156.005,34.742 145.47,34.742 145.47,44.03 
		139.96,44.03 139.96,20.948 157.773,20.948 157.773,25.904 	"/>
	<rect x="165.641" y="20.948" fill="#5A5A5D" width="5.51" height="23.082"/>
	<polygon fill="#5A5A5D" points="179.78,44.03 179.78,20.948 197.387,20.948 197.387,25.904 185.291,25.904 185.291,29.82 
		195.827,29.82 195.827,34.222 185.291,34.222 185.291,39.108 197.733,39.108 197.733,44.03 	"/>
	<polygon fill="#5A5A5D" points="206.155,44.03 206.155,20.948 211.665,20.948 211.665,39.108 223.343,39.108 223.343,44.03 	"/>
	<path fill="#5A5A5D" d="M239.148,39.108c4.021,0,6.134-2.564,6.134-6.619s-2.113-6.584-6.134-6.584h-4.021v13.204H239.148z
		 M229.583,44.03V20.948h9.565c7.694,0,11.852,4.991,11.852,11.541c0,6.55-4.157,11.541-11.852,11.541H229.583z"/>
	<rect x="139.958" y="50.889" fill="#A5A8AB" width="1.661" height="9.537"/>
	<polygon fill="#A5A8AB" points="153.344,50.888 153.344,58.106 148.975,50.888 146.854,50.888 146.854,60.426 148.459,60.426 
		148.459,53.037 152.942,60.426 154.947,60.426 154.947,50.888 	"/>
	<path fill="#A5A8AB" d="M163.982,58.909c1.947,0,2.979-1.276,2.979-3.252s-1.032-3.251-2.979-3.251h-2.091v6.503H163.982z
		 M160.201,60.426v-9.538h3.781c3.049,0,4.726,2.047,4.726,4.769c0,2.706-1.677,4.77-4.726,4.77H160.201z"/>
	<path fill="#A5A8AB" d="M181.408,56.801c0,2.379-1.662,3.797-4.011,3.797c-2.362,0-3.996-1.418-3.996-3.797v-5.913h1.676v5.913
		c0,1.392,0.844,2.249,2.32,2.249c1.447,0,2.349-0.857,2.349-2.249v-5.913h1.662V56.801z"/>
	<path fill="#A5A8AB" d="M193.792,52.492l-1.261,0.845c-0.602-0.802-1.519-1.202-2.535-1.202c-0.946,0-1.732,0.345-1.732,1.218
		c0,0.901,0.959,1.104,2.119,1.36c1.89,0.4,3.581,0.931,3.581,2.879c0,1.761-1.433,3.007-3.767,3.007
		c-1.891,0-3.337-0.816-4.067-2.12l1.346-0.787c0.644,1.059,1.719,1.489,2.821,1.489c1.188,0,1.991-0.516,1.991-1.404
		c0-1.016-1.032-1.202-2.393-1.475c-1.732-0.357-3.307-0.932-3.307-2.808c0-1.745,1.446-2.777,3.466-2.777
		C191.529,50.716,192.918,51.275,193.792,52.492"/>
	<polygon fill="#A5A8AB" points="197.928,50.888 197.928,52.349 201.063,52.349 201.063,60.426 202.74,60.426 202.74,52.349 
		205.889,52.349 205.889,50.888 	"/>
	<path fill="#A5A8AB" d="M214.635,52.35h-2.562v3.021h2.591c0.976,0,1.634-0.589,1.634-1.504
		C216.298,52.908,215.61,52.35,214.635,52.35 M216.398,60.426l-1.919-3.652h-2.405v3.652h-1.676v-9.538h4.281
		c2.105,0,3.337,1.159,3.337,2.878c0,1.359-0.859,2.292-1.904,2.693l2.162,3.967H216.398z"/>
	<rect x="222.883" y="50.889" fill="#A5A8AB" width="1.659" height="9.537"/>
	<polygon fill="#A5A8AB" points="229.879,50.888 229.879,60.426 236.968,60.426 236.968,58.964 231.556,58.964 231.556,56.129 
		236.138,56.129 236.138,54.668 231.556,54.668 231.556,52.349 236.825,52.349 236.825,50.888 	"/>
	<path fill="#A5A8AB" d="M248.76,52.492l-1.261,0.845c-0.601-0.802-1.518-1.202-2.533-1.202c-0.945,0-1.733,0.345-1.733,1.218
		c0,0.901,0.959,1.104,2.119,1.36c1.891,0.4,3.581,0.931,3.581,2.879c0,1.761-1.434,3.007-3.767,3.007
		c-1.891,0-3.338-0.816-4.067-2.12l1.346-0.787c0.645,1.059,1.719,1.489,2.822,1.489c1.188,0,1.989-0.516,1.989-1.404
		c0-1.016-1.03-1.202-2.392-1.475c-1.733-0.357-3.308-0.932-3.308-2.808c0-1.745,1.447-2.777,3.466-2.777
		C246.498,50.716,247.887,51.275,248.76,52.492"/>
</g>
</svg>
