<?xml version="1.0" encoding="utf-8"?>
<!-- Generator: Adobe Illustrator 15.1.0, SVG Export Plug-In . SVG Version: 6.00 Build 0)  -->
<!DOCTYPE svg PUBLIC "-//W3C//DTD SVG 1.1//EN" "http://www.w3.org/Graphics/SVG/1.1/DTD/svg11.dtd">
<svg version="1.1" id="Layer_1" xmlns="http://www.w3.org/2000/svg" xmlns:xlink="http://www.w3.org/1999/xlink" x="0px" y="0px"
	 width="251px" height="60.598px" viewBox="0 0 251 60.598" enable-background="new 0 0 251 60.598" xml:space="preserve">
<g>
	<path fill="#5A5A5D" d="M40.285,39.632c-3.935,0-7.125-3.189-7.125-7.125s3.189-7.125,7.125-7.125c3.936,0,7.125,3.189,7.125,7.125
		S44.22,39.632,40.285,39.632 M40.285,19.841c-6.995,0-12.665,5.671-12.665,12.665c0,6.996,5.669,12.667,12.665,12.667
		c6.996,0,12.667-5.671,12.667-12.667C52.951,25.513,47.28,19.841,40.285,19.841"/>
	<polygon fill="#5A5A5D" points="15.318,20.948 15.318,36.405 6.897,20.948 0,20.948 0,44.03 5.302,44.03 5.302,28.226 
		13.966,44.03 20.587,44.03 20.586,20.948 	"/>
	<path fill="#26BFF0" d="M40.285,0L28.74,18.138c3.161-2.543,7.174-4.068,11.545-4.068s8.385,1.524,11.545,4.067L40.285,0z"/>
	<path fill="#338CCC" d="M51.831,18.137c-3.16-2.542-7.173-4.066-11.545-4.066l0-14.071L51.831,18.137z"/>
	<path fill="#5A5A5D" d="M70.723,25.904h-5.197v5.718h5.197c1.802,0,3.154-1.074,3.154-2.877
		C73.877,26.909,72.491,25.904,70.723,25.904 M73.982,44.03l-4.159-8.007h-4.297v8.007h-5.545V20.948h10.846
		c5.719,0,8.665,3.049,8.665,7.347c0,3.43-2.148,5.648-4.297,6.653l4.955,9.081H73.982z"/>
	<polygon fill="#5A5A5D" points="97.527,25.904 97.527,44.03 91.981,44.03 91.981,25.904 84.843,25.904 84.843,20.948 104.7,20.948 
		104.7,25.904 	"/>
	<polygon fill="#5A5A5D" points="126.267,44.03 126.267,34.395 116.806,34.395 116.806,44.03 111.261,44.03 111.261,20.948 
		116.806,20.948 116.806,29.473 126.267,29.473 126.267,20.948 131.847,20.948 131.847,44.03 	"/>
	<polygon fill="#5A5A5D" points="145.47,25.904 145.47,30.34 156.006,30.34 156.006,34.741 145.47,34.741 145.47,44.03 
		139.96,44.03 139.96,20.948 157.773,20.948 157.773,25.904 	"/>
	<rect x="165.641" y="20.948" fill="#5A5A5D" width="5.509" height="23.081"/>
	<polygon fill="#5A5A5D" points="179.78,44.03 179.78,20.948 197.386,20.948 197.386,25.904 185.291,25.904 185.291,29.82 
		195.827,29.82 195.827,34.221 185.291,34.221 185.291,39.108 197.732,39.108 197.732,44.03 	"/>
	<polygon fill="#5A5A5D" points="206.154,44.03 206.154,20.948 211.665,20.948 211.665,39.108 223.343,39.108 223.343,44.03 	"/>
	<path fill="#5A5A5D" d="M239.147,39.108c4.021,0,6.134-2.564,6.134-6.62c0-4.054-2.114-6.583-6.134-6.583h-4.02v13.204H239.147z
		 M229.583,44.03V20.948h9.564c7.694,0,11.853,4.99,11.853,11.54c0,6.551-4.159,11.542-11.853,11.542H229.583z"/>
	<rect x="139.959" y="50.888" fill="#A6A9AC" width="1.661" height="9.537"/>
	<polygon fill="#A6A9AC" points="153.344,50.888 153.344,58.106 148.976,50.888 146.855,50.888 146.855,60.425 148.459,60.425 
		148.459,53.036 152.942,60.425 154.947,60.425 154.947,50.888 	"/>
	<path fill="#A6A9AC" d="M163.981,58.909c1.948,0,2.979-1.276,2.979-3.253c0-1.975-1.032-3.25-2.979-3.25h-2.091v6.503H163.981z
		 M160.201,60.425v-9.537h3.781c3.05,0,4.727,2.047,4.727,4.768c0,2.707-1.677,4.77-4.727,4.77H160.201z"/>
	<path fill="#A6A9AC" d="M181.407,56.801c0,2.378-1.661,3.797-4.01,3.797c-2.362,0-3.996-1.419-3.996-3.797v-5.913h1.675v5.913
		c0,1.391,0.845,2.249,2.321,2.249c1.446,0,2.349-0.858,2.349-2.249v-5.913h1.661V56.801z"/>
	<path fill="#A6A9AC" d="M193.792,52.491l-1.261,0.845c-0.602-0.801-1.518-1.202-2.534-1.202c-0.946,0-1.733,0.345-1.733,1.219
		c0,0.901,0.959,1.103,2.119,1.359c1.89,0.4,3.581,0.931,3.581,2.879c0,1.762-1.433,3.008-3.766,3.008
		c-1.892,0-3.337-0.816-4.068-2.121l1.346-0.787c0.645,1.06,1.719,1.489,2.821,1.489c1.188,0,1.991-0.515,1.991-1.403
		c0-1.016-1.032-1.203-2.393-1.475c-1.732-0.358-3.307-0.933-3.307-2.809c0-1.745,1.445-2.776,3.466-2.776
		C191.529,50.716,192.918,51.275,193.792,52.491"/>
	<polygon fill="#A6A9AC" points="197.928,50.888 197.928,52.349 201.063,52.349 201.063,60.425 202.74,60.425 202.74,52.349 
		205.89,52.349 205.89,50.888 	"/>
	<path fill="#A6A9AC" d="M214.636,52.349h-2.562v3.021h2.591c0.975,0,1.634-0.588,1.634-1.504
		C216.299,52.907,215.61,52.349,214.636,52.349 M216.397,60.425l-1.918-3.651h-2.406v3.651h-1.675v-9.537h4.281
		c2.106,0,3.337,1.159,3.337,2.878c0,1.359-0.86,2.292-1.905,2.693l2.162,3.966H216.397z"/>
	<rect x="222.883" y="50.888" fill="#A6A9AC" width="1.661" height="9.537"/>
	<polygon fill="#A6A9AC" points="229.88,50.888 229.88,60.425 236.968,60.425 236.968,58.964 231.556,58.964 231.556,56.129 
		236.138,56.129 236.138,54.668 231.556,54.668 231.556,52.349 236.825,52.349 236.825,50.888 	"/>
	<path fill="#A6A9AC" d="M248.76,52.491l-1.26,0.845c-0.601-0.801-1.519-1.202-2.534-1.202c-0.944,0-1.733,0.345-1.733,1.219
		c0,0.901,0.959,1.103,2.12,1.359c1.891,0.4,3.58,0.931,3.58,2.879c0,1.762-1.433,3.008-3.766,3.008
		c-1.891,0-3.337-0.816-4.068-2.121l1.346-0.787c0.645,1.06,1.719,1.489,2.822,1.489c1.188,0,1.989-0.515,1.989-1.403
		c0-1.016-1.029-1.203-2.391-1.475c-1.733-0.358-3.308-0.933-3.308-2.809c0-1.745,1.446-2.776,3.465-2.776
		C246.498,50.716,247.887,51.275,248.76,52.491"/>
</g>
</svg>
