<?xml version="1.0" encoding="utf-8"?>
<!-- Generator: Adobe Illustrator 15.1.0, SVG Export Plug-In . SVG Version: 6.00 Build 0)  -->
<!DOCTYPE svg PUBLIC "-//W3C//DTD SVG 1.1//EN" "http://www.w3.org/Graphics/SVG/1.1/DTD/svg11.dtd">
<svg version="1.1" id="Layer_1" xmlns="http://www.w3.org/2000/svg" xmlns:xlink="http://www.w3.org/1999/xlink" x="0px" y="0px"
	 width="251.222px" height="60px" viewBox="0 0 251.222 60" enable-background="new 0 0 251.222 60" xml:space="preserve">
<g>
	<defs>
		<rect id="SVGID_1_" width="251.222" height="60"/>
	</defs>
	<clipPath id="SVGID_2_">
		<use xlink:href="#SVGID_1_"  overflow="visible"/>
	</clipPath>
	<path clip-path="url(#SVGID_2_)" fill="#59595C" d="M39.888,39.242c-3.896,0-7.054-3.158-7.054-7.055s3.158-7.055,7.054-7.055
		s7.055,3.158,7.055,7.055S43.784,39.242,39.888,39.242 M39.888,19.646c-6.926,0-12.541,5.615-12.541,12.541
		c0,6.927,5.615,12.541,12.541,12.541S52.43,39.114,52.43,32.187C52.43,25.261,46.814,19.646,39.888,19.646"/>
	<polygon clip-path="url(#SVGID_2_)" fill="#59595C" points="15.167,20.742 15.167,36.046 6.829,20.742 0,20.742 0,43.595 
		5.25,43.595 5.25,27.948 13.829,43.595 20.383,43.595 20.383,20.742 	"/>
	<path clip-path="url(#SVGID_2_)" fill="#59595C" d="M70.003,25.649h-5.147v5.661h5.147c1.784,0,3.123-1.063,3.123-2.847
		C73.125,26.644,71.753,25.649,70.003,25.649 M73.229,43.595l-4.117-7.927h-4.255v7.927h-5.49V20.742h10.74
		c5.662,0,8.579,3.02,8.579,7.275c0,3.397-2.127,5.592-4.255,6.588l4.907,8.99H73.229z"/>
	<polygon clip-path="url(#SVGID_2_)" fill="#59595C" points="97.901,25.649 97.901,43.595 92.411,43.595 92.411,25.649 
		85.342,25.649 85.342,20.742 105.004,20.742 105.004,25.649 	"/>
	<polygon clip-path="url(#SVGID_2_)" fill="#59595C" points="127.378,43.595 127.378,34.056 118.01,34.056 118.01,43.595 
		112.521,43.595 112.521,20.742 118.01,20.742 118.01,29.184 127.378,29.184 127.378,20.742 132.903,20.742 132.903,43.595 	"/>
	<polygon clip-path="url(#SVGID_2_)" fill="#59595C" points="146.733,25.649 146.733,30.042 157.164,30.042 157.164,34.399 
		146.733,34.399 146.733,43.595 141.277,43.595 141.277,20.742 158.914,20.742 158.914,25.649 	"/>
	<rect x="166.704" y="20.742" clip-path="url(#SVGID_2_)" fill="#59595C" width="5.456" height="22.854"/>
	<polygon clip-path="url(#SVGID_2_)" fill="#59595C" points="180.705,43.595 180.705,20.742 198.137,20.742 198.137,25.649 
		186.16,25.649 186.16,29.526 196.592,29.526 196.592,33.884 186.16,33.884 186.16,38.722 198.479,38.722 198.479,43.595 	"/>
	<polygon clip-path="url(#SVGID_2_)" fill="#59595C" points="206.818,43.595 206.818,20.742 212.274,20.742 212.274,38.722 
		223.838,38.722 223.838,43.595 	"/>
	<path clip-path="url(#SVGID_2_)" fill="#59595C" d="M239.486,38.722c3.981,0,6.074-2.539,6.074-6.554s-2.093-6.52-6.074-6.52
		h-3.979v13.073H239.486z M230.016,43.595V20.742h9.471c7.618,0,11.736,4.941,11.736,11.427s-4.118,11.427-11.736,11.427H230.016z"
		/>
	<path clip-path="url(#SVGID_2_)" fill="#00C0F6" d="M39.888,0L28.457,17.959c3.129-2.518,7.104-4.028,11.432-4.028
		s8.302,1.51,11.431,4.027L39.888,0z"/>
	<path clip-path="url(#SVGID_2_)" fill="#1C8FDE" d="M51.32,17.958c-3.129-2.517-7.103-4.026-11.431-4.026L39.888,0L51.32,17.958z"
		/>
	<rect x="141.275" y="50.388" clip-path="url(#SVGID_2_)" fill="#A6A8AB" width="1.645" height="9.441"/>
	<polygon clip-path="url(#SVGID_2_)" fill="#A6A8AB" points="154.528,50.387 154.528,57.533 150.204,50.387 148.104,50.387 
		148.104,59.83 149.692,59.83 149.692,52.513 154.131,59.83 156.116,59.83 156.116,50.387 	"/>
	<path clip-path="url(#SVGID_2_)" fill="#A6A8AB" d="M165.062,58.327c1.928,0,2.95-1.263,2.95-3.219s-1.022-3.219-2.95-3.219h-2.07
		v6.438H165.062z M161.318,59.83v-9.442h3.744c3.02,0,4.679,2.026,4.679,4.721c0,2.68-1.66,4.722-4.679,4.722H161.318z"/>
	<path clip-path="url(#SVGID_2_)" fill="#A6A8AB" d="M182.315,56.243c0,2.354-1.645,3.758-3.971,3.758
		c-2.339,0-3.956-1.404-3.956-3.758v-5.855h1.658v5.855c0,1.376,0.837,2.226,2.298,2.226c1.432,0,2.326-0.85,2.326-2.226v-5.855
		h1.645V56.243z"/>
	<path clip-path="url(#SVGID_2_)" fill="#A6A8AB" d="M194.578,51.974l-1.248,0.837c-0.596-0.794-1.503-1.191-2.509-1.191
		c-0.937,0-1.716,0.341-1.716,1.206c0,0.893,0.949,1.092,2.098,1.347c1.872,0.396,3.545,0.921,3.545,2.851
		c0,1.744-1.418,2.978-3.73,2.978c-1.872,0-3.304-0.809-4.026-2.099l1.333-0.78c0.638,1.05,1.701,1.475,2.793,1.475
		c1.175,0,1.971-0.51,1.971-1.39c0-1.007-1.022-1.19-2.369-1.46c-1.716-0.354-3.275-0.923-3.275-2.78c0-1.729,1.431-2.75,3.432-2.75
		C192.337,50.216,193.712,50.769,194.578,51.974"/>
	<polygon clip-path="url(#SVGID_2_)" fill="#A6A8AB" points="198.672,50.387 198.672,51.833 201.777,51.833 201.777,59.83 
		203.438,59.83 203.438,51.833 206.556,51.833 206.556,50.387 	"/>
	<path clip-path="url(#SVGID_2_)" fill="#A6A8AB" d="M215.217,51.833h-2.537v2.992h2.565c0.966,0,1.618-0.582,1.618-1.488
		C216.863,52.385,216.182,51.833,215.217,51.833 M216.96,59.83l-1.898-3.616h-2.382v3.616h-1.659v-9.442h4.238
		c2.085,0,3.306,1.147,3.306,2.85c0,1.346-0.853,2.269-1.887,2.666l2.141,3.927H216.96z"/>
	<rect x="223.383" y="50.388" clip-path="url(#SVGID_2_)" fill="#A6A8AB" width="1.645" height="9.441"/>
	<polygon clip-path="url(#SVGID_2_)" fill="#A6A8AB" points="230.311,50.387 230.311,59.83 237.328,59.83 237.328,58.384 
		231.969,58.384 231.969,55.576 236.507,55.576 236.507,54.13 231.969,54.13 231.969,51.833 237.188,51.833 237.188,50.387 	"/>
	<path clip-path="url(#SVGID_2_)" fill="#A6A8AB" d="M249.004,51.974l-1.247,0.837c-0.596-0.794-1.504-1.191-2.509-1.191
		c-0.936,0-1.717,0.341-1.717,1.206c0,0.893,0.949,1.092,2.099,1.347c1.872,0.396,3.545,0.921,3.545,2.851
		c0,1.744-1.418,2.978-3.729,2.978c-1.872,0-3.305-0.809-4.027-2.099l1.332-0.78c0.638,1.05,1.701,1.475,2.794,1.475
		c1.177,0,1.97-0.51,1.97-1.39c0-1.007-1.02-1.19-2.367-1.46c-1.717-0.354-3.275-0.923-3.275-2.78c0-1.729,1.433-2.75,3.432-2.75
		C246.765,50.216,248.14,50.769,249.004,51.974"/>
</g>
</svg>
