<?xml version="1.0" encoding="utf-8"?>
<!-- Generator: Adobe Illustrator 15.1.0, SVG Export Plug-In . SVG Version: 6.00 Build 0)  -->
<!DOCTYPE svg PUBLIC "-//W3C//DTD SVG 1.1//EN" "http://www.w3.org/Graphics/SVG/1.1/DTD/svg11.dtd">
<svg version="1.1" id="Layer_1" xmlns="http://www.w3.org/2000/svg" xmlns:xlink="http://www.w3.org/1999/xlink" x="0px" y="0px"
	 width="251px" height="59.947px" viewBox="0 0 251 59.947" enable-background="new 0 0 251 59.947" xml:space="preserve">
<g>
	<path fill="#59595C" d="M39.852,39.208c-3.893,0-7.048-3.156-7.048-7.049c0-3.893,3.155-7.048,7.048-7.048
		c3.894,0,7.049,3.155,7.049,7.048C46.901,36.051,43.746,39.208,39.852,39.208 M39.852,19.629c-6.919,0-12.529,5.61-12.529,12.53
		c0,6.921,5.61,12.53,12.529,12.53c6.921,0,12.531-5.609,12.531-12.53C52.383,25.239,46.773,19.629,39.852,19.629"/>
	<polygon fill="#59595C" points="15.153,20.724 15.153,36.014 6.823,20.724 0,20.724 0,43.557 5.245,43.557 5.245,27.923 
		13.816,43.557 20.365,43.557 20.365,20.724 	"/>
	<path fill="#59595C" d="M69.941,25.626h-5.142v5.657h5.142c1.783,0,3.12-1.062,3.12-2.845
		C73.061,26.62,71.689,25.626,69.941,25.626 M73.164,43.557l-4.113-7.92h-4.251v7.92h-5.486V20.724h10.73
		c5.657,0,8.571,3.017,8.571,7.269c0,3.393-2.125,5.587-4.251,6.583l4.903,8.982H73.164z"/>
	<polygon fill="#59595C" points="97.814,25.626 97.814,43.557 92.329,43.557 92.329,25.626 85.267,25.626 85.267,20.724 
		104.912,20.724 104.912,25.626 	"/>
	<polygon fill="#59595C" points="127.266,43.557 127.266,34.026 117.906,34.026 117.906,43.557 112.42,43.557 112.42,20.724 
		117.906,20.724 117.906,29.158 127.266,29.158 127.266,20.724 132.785,20.724 132.785,43.557 	"/>
	<polygon fill="#59595C" points="146.603,25.626 146.603,30.015 157.025,30.015 157.025,34.369 146.603,34.369 146.603,43.557 
		141.152,43.557 141.152,20.724 158.773,20.724 158.773,25.626 	"/>
	<rect x="166.556" y="20.724" fill="#59595C" width="5.451" height="22.834"/>
	<polygon fill="#59595C" points="180.545,43.557 180.545,20.724 197.961,20.724 197.961,25.626 185.995,25.626 185.995,29.5 
		196.418,29.5 196.418,33.854 185.995,33.854 185.995,38.688 198.303,38.688 198.303,43.557 	"/>
	<polygon fill="#59595C" points="206.635,43.557 206.635,20.724 212.086,20.724 212.086,38.688 223.64,38.688 223.64,43.557 	"/>
	<path fill="#59595C" d="M239.273,38.688c3.979,0,6.069-2.537,6.069-6.548c0-4.011-2.091-6.514-6.069-6.514h-3.976v13.062H239.273z
		 M229.812,43.557V20.724h9.461c7.612,0,11.727,4.937,11.727,11.417s-4.114,11.417-11.727,11.417H229.812z"/>
	<path fill="#38BD2B" d="M39.853,0.001L28.432,17.944c3.126-2.515,7.097-4.024,11.421-4.024c4.325,0,8.295,1.509,11.421,4.024
		L39.853,0.001z"/>
	<path fill="#2B862B" d="M51.274,17.943c-3.126-2.515-7.096-4.023-11.421-4.023l0-13.92L51.274,17.943z"/>
	<rect x="141.15" y="50.343" fill="#A6A8AB" width="1.644" height="9.434"/>
	<polygon fill="#A6A8AB" points="154.392,50.342 154.392,57.482 150.07,50.342 147.972,50.342 147.972,59.777 149.56,59.777 
		149.56,52.467 153.994,59.777 155.978,59.777 155.978,50.342 	"/>
	<path fill="#A6A8AB" d="M164.915,58.276c1.927,0,2.948-1.262,2.948-3.217c0-1.954-1.021-3.216-2.948-3.216h-2.068v6.433H164.915z
		 M161.175,59.777v-9.435h3.74c3.017,0,4.675,2.025,4.675,4.717c0,2.678-1.658,4.718-4.675,4.718H161.175z"/>
	<path fill="#A6A8AB" d="M182.154,56.193c0,2.352-1.643,3.754-3.967,3.754c-2.337,0-3.953-1.402-3.953-3.754v-5.851h1.656v5.851
		c0,1.375,0.836,2.224,2.296,2.224c1.43,0,2.324-0.849,2.324-2.224v-5.851h1.643V56.193z"/>
	<path fill="#A6A8AB" d="M194.405,51.928l-1.247,0.836c-0.595-0.793-1.502-1.189-2.507-1.189c-0.935,0-1.714,0.34-1.714,1.205
		c0,0.892,0.948,1.09,2.096,1.345c1.87,0.396,3.542,0.921,3.542,2.849c0,1.742-1.417,2.974-3.726,2.974
		c-1.871,0-3.301-0.807-4.023-2.096l1.332-0.78c0.637,1.049,1.7,1.474,2.791,1.474c1.174,0,1.969-0.51,1.969-1.389
		c0-1.005-1.021-1.189-2.367-1.458c-1.714-0.354-3.272-0.922-3.272-2.778c0-1.728,1.43-2.748,3.429-2.748
		C192.167,50.171,193.541,50.724,194.405,51.928"/>
	<polygon fill="#A6A8AB" points="198.497,50.342 198.497,51.787 201.599,51.787 201.599,59.777 203.258,59.777 203.258,51.787 
		206.373,51.787 206.373,50.342 	"/>
	<path fill="#A6A8AB" d="M215.026,51.787h-2.535v2.989h2.563c0.965,0,1.616-0.581,1.616-1.486
		C216.671,52.339,215.99,51.787,215.026,51.787 M216.768,59.777l-1.896-3.613h-2.38v3.613h-1.658v-9.435h4.235
		c2.083,0,3.302,1.147,3.302,2.848c0,1.345-0.851,2.267-1.884,2.663l2.139,3.924H216.768z"/>
	<rect x="223.185" y="50.343" fill="#A6A8AB" width="1.644" height="9.434"/>
	<polygon fill="#A6A8AB" points="230.106,50.342 230.106,59.777 237.118,59.777 237.118,58.333 231.764,58.333 231.764,55.527 
		236.297,55.527 236.297,54.083 231.764,54.083 231.764,51.787 236.977,51.787 236.977,50.342 	"/>
	<path fill="#A6A8AB" d="M248.784,51.928l-1.247,0.836c-0.595-0.793-1.503-1.189-2.507-1.189c-0.935,0-1.715,0.34-1.715,1.205
		c0,0.892,0.948,1.09,2.097,1.345c1.871,0.396,3.542,0.921,3.542,2.849c0,1.742-1.417,2.974-3.726,2.974
		c-1.87,0-3.302-0.807-4.023-2.096l1.331-0.78c0.637,1.049,1.699,1.474,2.791,1.474c1.176,0,1.968-0.51,1.968-1.389
		c0-1.005-1.019-1.189-2.364-1.458c-1.715-0.354-3.272-0.922-3.272-2.778c0-1.728,1.431-2.748,3.429-2.748
		C246.546,50.171,247.92,50.724,248.784,51.928"/>
</g>
</svg>
